<svg width="35" height="45" fill="none" xmlns="http://www.w3.org/2000/svg"><path d="M7.801 19.356l4.051-4.874a.65.65 0 10-1-.83L7.38 17.828l-.76-1.233a.65.65 0 10-1.106.682l1.234 2.003a.65.65 0 001.053.075zm-2.287 6.501l1.234 2.003a.65.65 0 001.053.075l4.051-4.874a.65.65 0 10-1-.83L7.38 26.408l-.76-1.233a.65.65 0 10-1.106.682zm0 8.635l1.234 2.004a.65.65 0 001.053.075l4.051-4.874a.65.65 0 10-1-.83L7.38 35.043l-.76-1.233a.65.65 0 10-1.106.681z" fill="#0491FB"/><path d="M34.257 37.07a.65.65 0 00-.65.65v4.732a.998.998 0 01-.997.996H2.541a.998.998 0 01-.996-.996V13.969a.65.65 0 10-1.3 0v28.483a2.299 2.299 0 002.296 2.296h30.07a2.299 2.299 0 002.296-2.296V37.72a.65.65 0 00-.65-.65zM32.61 5.389h-3.179V2.703A2.325 2.325 0 0027.11.381a2.325 2.325 0 00-2.323 2.322V5.39h-4.888V2.703A2.325 2.325 0 0017.576.381a2.325 2.325 0 00-2.322 2.322V5.39h-4.889V2.703A2.325 2.325 0 008.043.381 2.325 2.325 0 005.72 2.703V5.39H2.54A2.299 2.299 0 00.245 7.685v3.251a.65.65 0 101.3 0V7.685c0-.55.447-.997.996-.997h3.18V7.72a2.325 2.325 0 002.322 2.323 2.325 2.325 0 002.322-2.323V6.688h4.889V7.72a2.325 2.325 0 002.322 2.323 2.325 2.325 0 002.322-2.323V6.688h4.889V7.72a2.325 2.325 0 002.322 2.323A2.325 2.325 0 0029.43 7.72V6.688h3.18c.549 0 .996.448.996.997v27.003a.65.65 0 101.3 0V7.684a2.299 2.299 0 00-2.297-2.296zM9.065 7.72a1.024 1.024 0 01-2.045 0V2.703a1.024 1.024 0 012.045 0V7.72zm9.533 0a1.024 1.024 0 01-2.045 0V2.703a1.024 1.024 0 012.045 0V7.72zm9.533 0a1.024 1.024 0 01-2.045 0V2.703a1.024 1.024 0 012.045 0V7.72z" fill="#0491FB"/><path d="M14.607 19.894h13.691a2.039 2.039 0 002.037-2.036 2.039 2.039 0 00-2.037-2.037h-13.69a2.039 2.039 0 00-2.037 2.037c0 1.122.913 2.036 2.036 2.036zm0-2.773h13.691a.737.737 0 010 1.473h-13.69a.737.737 0 010-1.473zm0 11.371h13.691a2.039 2.039 0 002.037-2.037 2.039 2.039 0 00-2.037-2.036h-13.69a2.039 2.039 0 00-2.037 2.036c0 1.123.913 2.037 2.036 2.037zm0-2.773h13.691a.737.737 0 010 1.473h-13.69a.737.737 0 010-1.473zm0 11.369h13.691a2.039 2.039 0 002.037-2.036 2.039 2.039 0 00-2.037-2.036h-13.69a2.039 2.039 0 00-2.037 2.036c0 1.123.913 2.036 2.036 2.036zm0-2.773h13.691a.737.737 0 010 1.474h-13.69a.737.737 0 010-1.474z" fill="#0491FB"/></svg>