<svg width="54" height="51" fill="none" xmlns="http://www.w3.org/2000/svg"><path d="M53.388 27.837a20.826 20.826 0 00-5.986-12.63 20.663 20.663 0 00-10.165-5.582V7.012a3.504 3.504 0 002.654-3.395c0-1.93-1.57-3.499-3.498-3.499h-7.41a3.503 3.503 0 00-3.498 3.499 3.505 3.505 0 002.654 3.395v2.622a20.662 20.662 0 00-10.134 5.574 20.882 20.882 0 00-1.747 1.983 1.008 1.008 0 00-.078-.004H8.847a1.03 1.03 0 000 2.058h6.011a20.626 20.626 0 00-1.826 3.955h-11.2a1.03 1.03 0 000 2.058h10.619a20.924 20.924 0 00-.511 3.955H7.39a1.03 1.03 0 000 2.058h4.583c.087 1.332.3 2.657.642 3.956H5.95a1.03 1.03 0 000 2.058h7.323a20.667 20.667 0 004.733 7.32A20.825 20.825 0 0030.65 50.59a20.836 20.836 0 0013.383-3.252 1.029 1.029 0 10-1.123-1.724c-7.363 4.794-17.225 3.758-23.448-2.466-7.302-7.302-7.302-19.183 0-26.486 7.302-7.302 19.183-7.302 26.486 0 6.215 6.216 7.257 16.069 2.478 23.428a1.029 1.029 0 001.726 1.121 20.852 20.852 0 003.236-13.373zM27.543 3.616c0-.794.646-1.44 1.44-1.44h7.41c.794 0 1.44.646 1.44 1.44 0 .794-.646 1.44-1.44 1.44h-7.409a1.442 1.442 0 01-1.441-1.44zm2.654 5.663V7.115h4.982v2.16a20.967 20.967 0 00-4.982.004z" fill="#0491FB"/><path d="M46.675 42.847a1.033 1.033 0 00-1.029 1.029 1.033 1.033 0 001.029 1.029c.27 0 .535-.11.728-.302.19-.191.301-.457.301-.727 0-.27-.11-.536-.301-.728a1.039 1.039 0 00-.728-.301zM32.704 13.942c-8.802 0-15.963 7.161-15.963 15.964 0 8.802 7.16 15.963 15.963 15.963 8.802 0 15.963-7.161 15.963-15.963 0-8.803-7.161-15.964-15.963-15.964zm0 29.869c-7.668 0-13.905-6.238-13.905-13.905C18.799 22.238 25.037 16 32.704 16c7.667 0 13.905 6.238 13.905 13.906 0 7.667-6.238 13.905-13.905 13.905z" fill="#0491FB"/><path d="M39.213 21.94l-5.097 5.097a3.179 3.179 0 00-2.825 0l-2.28-2.281a1.029 1.029 0 10-1.456 1.455l2.28 2.281a3.201 3.201 0 002.868 4.61 3.201 3.201 0 003.198-3.198c0-.506-.119-.986-.33-1.412l4.948-4.947.15-.15a1.03 1.03 0 00-1.456-1.455zm-6.51 9.104a1.14 1.14 0 01-1.139-1.14 1.14 1.14 0 012.28 0 1.14 1.14 0 01-1.14 1.14zm11.003-2.155h-.953a1.03 1.03 0 000 2.058h.953a1.03 1.03 0 000-2.058zm-21.051-.026H21.7a1.03 1.03 0 000 2.058h.954a1.03 1.03 0 100-2.058zm10.062-7.978a1.03 1.03 0 001.029-1.029v-.953a1.03 1.03 0 00-2.059 0v.953c0 .569.461 1.03 1.03 1.03zm-.026 18.04a1.03 1.03 0 00-1.029 1.029v.953a1.03 1.03 0 002.058 0v-.953a1.03 1.03 0 00-1.029-1.03zM1.833 35.226c-.27 0-.536.11-.728.301a1.037 1.037 0 00-.301.728c0 .271.11.536.301.727.192.191.457.302.728.302a1.034 1.034 0 001.029-1.029c0-.271-.11-.537-.302-.728a1.036 1.036 0 00-.727-.301z" fill="#0491FB"/></svg>