<svg width="31" height="38" fill="none" xmlns="http://www.w3.org/2000/svg"><path d="M9.3 26.66H8.06a.62.62 0 000 1.24H9.3a.62.62 0 000-1.24zm17.36 0H11.78a.62.62 0 000 1.24h14.88a.62.62 0 000-1.24zM9.3 22.941H8.06a.62.62 0 000 1.24H9.3a.62.62 0 000-1.24zm17.36 0H11.78a.62.62 0 000 1.24h14.88a.62.62 0 000-1.24zM9.3 19.22H8.06a.62.62 0 000 1.24H9.3a.62.62 0 000-1.24zm17.36 0H11.78a.62.62 0 000 1.24h14.88a.62.62 0 000-1.24zM9.3 15.5H8.06a.62.62 0 000 1.24H9.3a.62.62 0 000-1.24zm17.36 0H11.78a.62.62 0 000 1.24h14.88a.62.62 0 000-1.24zM9.3 11.78H8.06a.62.62 0 000 1.24H9.3a.62.62 0 000-1.24zm17.36 0H11.78a.62.62 0 000 1.24h14.88a.62.62 0 000-1.24z" fill="#A0A0A0"/><path d="M30.992 9.26a.586.586 0 00-.032-.158c-.007-.02-.012-.04-.02-.059a.622.622 0 00-.124-.181l-8.68-8.68a.62.62 0 00-.182-.124c-.019-.009-.038-.014-.058-.02a.617.617 0 00-.16-.033C21.726.007 21.714 0 21.7 0H4.34a.62.62 0 00-.62.62v1.86H.62A.62.62 0 000 3.1v33.48c0 .342.278.62.62.62h26.04a.62.62 0 00.62-.62v-3.1h3.1a.62.62 0 00.62-.62V9.3c0-.014-.007-.025-.008-.04zM22.32 2.118l6.563 6.563H22.32V2.117zm3.72 33.843H1.24V3.72h2.48v29.14c0 .342.278.62.62.62h21.7v2.48zm3.72-3.72H4.96v-31h16.12V9.3c0 .342.278.62.62.62h8.06v22.32z" fill="#A0A0A0"/><path d="M11.78 5.58H8.06a.62.62 0 00-.62.62v3.72c0 .342.278.62.62.62h3.72a.62.62 0 00.62-.62V6.2a.62.62 0 00-.62-.62zm-.62 3.72H8.68V6.82h2.48V9.3z" fill="#A0A0A0"/></svg>